# xmcd
#
# Track frame offsets: 
#        150
#        12852
#        32023
#        49978
#        61977
#        76821
#        91189
#        109847
#        133711
#        157082
#        181246
#        204335
#        223060
#        238697
#        253042
#        272786
#        283781
#        291823
#        312416
#        316988
#
# Disc length: 4351 seconds
#
# Revision: 0
# Processed by: cddbd v1.5.2PL0 Copyright (c) Steve Scherf et al.
# Submitted via: ExactAudioCopy v0.99pb5
#
DISCID=2410fd14
DTITLE=Elvis Presley  - FTD 53 - Made In Memphis  
DYEAR=1900
DGENRE=
TTITLE0=In The Ghetto - take 13
TTITLE1=You'll Think Of Me - take 8
TTITLE2=Do You Know Who I Am - take 4
TTITLE3=If You Don't Come Back - take 5
TTITLE4=Three Corn Patches - takes 5 and 6
TTITLE5=Find Out What's Happening - take 7
TTITLE6=It's Midnight - take 11
TTITLE7=Thinking About You - take 3
TTITLE8=You Asked Me To - take 1
TTITLE9=Solitaire - take 7 and talk from 6 and 7
TTITLE10=She Thinks I Still Care - take 3 and 4
TTITLE11=Moody Blue - take 6
TTITLE12=Bitter They Are, Harder They Fall - take 1
TTITLE13=Love Coming Down - take 4
TTITLE14=For The Heart - take 5
TTITLE15=Baby What You Want Me To Do
TTITLE16=I'm So Lonesome I Could Cry
TTITLE17=Spanish Eyes
TTITLE18=See See Rider
TTITLE19=That's All Right
EXTD=
EXTT0=
EXTT1=
EXTT2=
EXTT3=
EXTT4=
EXTT5=
EXTT6=
EXTT7=
EXTT8=
EXTT9=
EXTT10=
EXTT11=
EXTT12=
EXTT13=
EXTT14=
EXTT15=
EXTT16=
EXTT17=
EXTT18=
EXTT19=
PLAYORDER=
